Coordinates
version=1
nRows=5
nColumns=40
inDegrees=yes

Units are S.I. units (second, meters, Newtons, ...)
Angles are in degrees.

endheader
time	pelvis_tilt	pelvis_list	pelvis_rotation	pelvis_tx	pelvis_ty	pelvis_tz	hip_flexion_r	hip_adduction_r	hip_rotation_r	knee_angle_r	knee_angle_r_beta	ankle_angle_r	subtalar_angle_r	mtp_angle_r	hip_flexion_l	hip_adduction_l	hip_rotation_l	knee_angle_l	knee_angle_l_beta	ankle_angle_l	subtalar_angle_l	mtp_angle_l	lumbar_extension	lumbar_bending	lumbar_rotation	arm_flex_r	arm_add_r	arm_rot_r	elbow_flex_r	pro_sup_r	wrist_flex_r	wrist_dev_r	arm_flex_l	arm_add_l	arm_rot_l	elbow_flex_l	pro_sup_l	wrist_flex_l	wrist_dev_l
     43.56692857	     -5.93522305	     -4.02824047	      0.25547230	      1.04109616	      0.92094671	      0.42664664	     28.99561018	     -2.26557949	    -13.71199830	     15.65574396	     15.65574396	      2.65394049	      2.44776935	      9.07258319	      3.07662610	     -5.07109448	     -9.76430713	     14.69448333	     14.69448333	     18.27406284	     -6.34886341	     -3.94839821	    -11.60064578	      4.30743427	      2.11737346	    -18.74852237	    -12.97302527	     -3.74837893	     29.10494723	     46.46733243	      0.00000000	      0.00000000	     25.07877061	    -17.80174095	     -5.74974605	     88.41788250	     47.35134935	      0.00000000	      0.00000000
     43.57885714	     -5.86790299	     -3.91595970	      0.50462042	      1.04328711	      0.91968753	      0.42842415	     28.22259931	     -2.15602041	    -14.17894954	     15.41916613	     15.41916613	      2.40856794	      2.41572240	      8.23933856	      2.33099552	     -5.10691943	     -9.72750623	     14.63330052	     14.63330052	     18.84294489	     -5.92675040	     -3.60527861	    -11.44900102	      4.13464677	      2.18955182	    -19.38382512	    -12.71678149	     -3.81940704	     29.56716362	     46.43856731	      0.00000000	      0.00000000	     25.19467029	    -17.61522550	     -5.45875423	     89.92243718	     47.38191920	      0.00000000	      0.00000000
     43.59078571	     -5.83643735	     -3.80575418	      0.76760356	      1.04546772	      0.91844169	      0.43035467	     27.46565794	     -2.01209560	    -14.33457838	     15.20860153	     15.20860153	      1.04025003	      1.76859781	      4.01162690	      1.85496371	     -5.23703354	     -9.81846809	     15.06555838	     15.06555838	     20.01030262	     -5.14269146	     -2.02060316	    -11.24863002	      3.97425395	      1.88593458	    -19.74341866	    -12.60451177	     -3.78724459	     30.53262099	     46.36410689	      0.00000000	      0.00000000	     24.81313074	    -17.88005101	     -5.19348621	     91.44554789	     47.47133651	      0.00000000	      0.00000000
     43.60271429	     -5.99695805	     -3.70967475	      0.90083585	      1.04739448	      0.91752351	      0.43238439	     27.04633698	     -1.90402001	    -14.39717898	     15.37159391	     15.37159391	      0.98578480	      1.70988145	      3.99951759	      1.48887505	     -5.30929724	     -9.74870057	     15.17967704	     15.17967704	     20.07642511	     -5.15692401	     -2.04558393	    -10.81276242	      3.89296179	      1.93766861	    -19.68984855	    -12.55898556	     -3.77624042	     30.54889697	     46.36289812	      0.00000000	      0.00000000	     24.82846926	    -17.83323150	     -5.18479512	     91.50380516	     47.47244536	      0.00000000	      0.00000000
     43.61464286	     -5.72854890	     -3.81413537	      1.15209801	      1.04943732	      0.91701889	      0.43471599	     26.29729405	     -1.54106464	    -14.02752251	     15.74559406	     15.74559406	     -0.19059601	      0.05534222	     -0.36247659	      1.04367543	     -5.75419627	     -9.63924550	     16.10774642	     16.10774642	     21.06438181	     -4.85047816	     -0.80415380	    -11.00851665	      3.86740246	      1.98822225	    -19.05732273	    -12.23913520	     -2.85283804	     29.54508749	     46.32587239	      0.00000000	      0.00000000	     24.47827886	    -17.43784585	     -4.79920908	     93.16432631	     47.55128330	      0.00000000	      0.00000000
